<svg width="36" height="36" viewBox="0 0 36 36" fill="none" xmlns="http://www.w3.org/2000/svg">
<rect y="-0.000488281" width="36" height="36" rx="4" fill="#9492E9"/>
<g clip-path="url(#clip0_802_2004)">
<path fill-rule="evenodd" clip-rule="evenodd" d="M17.1716 11.8376C17.9217 11.0874 18.9391 10.666 20 10.666H22C22.3682 10.666 22.6667 10.9645 22.6667 11.3327V13.9993C22.6667 14.3675 22.3682 14.666 22 14.666H20V15.9993H22C22.2053 15.9993 22.3991 16.0939 22.5255 16.2557C22.6518 16.4176 22.6966 16.6285 22.6468 16.8277L21.9801 19.4944C21.9059 19.7912 21.6392 19.9993 21.3333 19.9993H20V24.666C20 25.0342 19.7015 25.3327 19.3333 25.3327H16.6667C16.2985 25.3327 16 25.0342 16 24.666V19.9993H14.6667C14.2985 19.9993 14 19.7009 14 19.3327V16.666C14 16.2978 14.2985 15.9993 14.6667 15.9993H16V14.666C16 13.6051 16.4214 12.5877 17.1716 11.8376ZM20 11.9993C19.2928 11.9993 18.6145 12.2803 18.1144 12.7804C17.6143 13.2805 17.3333 13.9588 17.3333 14.666V16.666C17.3333 17.0342 17.0349 17.3327 16.6667 17.3327H15.3333V18.666H16.6667C17.0349 18.666 17.3333 18.9645 17.3333 19.3327V23.9993H18.6667V19.3327C18.6667 18.9645 18.9651 18.666 19.3333 18.666H20.8128L21.1461 17.3327H19.3333C18.9651 17.3327 18.6667 17.0342 18.6667 16.666V14.666C18.6667 14.3124 18.8071 13.9733 19.0572 13.7232C19.3072 13.4732 19.6464 13.3327 20 13.3327H21.3333V11.9993H20Z" fill="white"/>
</g>
<defs>
<clipPath id="clip0_802_2004">
<rect width="16" height="16" fill="white" transform="translate(10 9.99951)"/>
</clipPath>
</defs>
</svg>
