<svg width="102" height="30" viewBox="0 0 102 30" fill="none" xmlns="http://www.w3.org/2000/svg">
<path opacity="0.2" d="M69.749 14.8867C69.749 14.8867 63.2658 9.28036 63.8551 9.19792C64.3603 9.11547 66.1285 5.90007 64.1919 4.74582C62.2554 3.59157 60.9082 4.58093 60.9082 4.58093C58.4664 7.3841 61.1608 9.11547 61.1608 9.11547C61.1608 9.11547 61.245 9.03302 61.245 9.11547C61.245 9.19792 60.6556 10.0224 60.403 10.0224C60.0662 10.0224 58.9716 11.1766 58.719 11.5064C58.4664 11.8362 55.6879 15.5463 55.5195 15.7936C55.3511 16.041 56.2773 17.0303 56.2773 17.0303C56.2773 18.0197 56.7825 17.525 56.8667 17.8548C56.8667 18.1021 57.1193 18.1846 57.1193 18.1846L59.6452 15.2989C59.6452 15.2989 59.2242 18.6792 59.14 18.7617C59.0558 18.8441 58.5506 21.4 58.6348 21.8946C58.719 22.3069 58.2138 23.9558 58.2138 23.9558C58.2138 23.9558 59.3926 24.1207 60.0662 24.6154C60.7398 25.0276 60.5714 24.6978 60.7398 24.6978C60.9082 24.6978 62.4238 19.2564 62.4238 19.2564L63.8551 24.6154C63.8551 24.6154 63.4342 25.0276 64.1077 25.11C64.7813 25.1925 66.6337 24.4505 66.8021 24.368C66.9705 24.2031 65.2865 15.5463 65.2865 15.5463L67.9809 17.6074L68.7387 16.9479V16.5356L69.749 14.8867ZM60.2346 6.22985C60.2346 6.22985 60.2346 6.06496 60.3188 5.98251H60.403C60.403 5.98251 60.2346 6.1474 60.2346 6.22985ZM56.8667 14.8043C56.8667 14.8043 56.6983 14.8867 56.6983 14.9692L56.9509 14.7218C56.9509 14.6394 56.8667 14.8043 56.8667 14.8043ZM58.4664 12.4133H58.3822L58.9716 11.7537L58.4664 12.4133ZM58.8874 21.7297C58.8032 21.5649 59.2242 19.8335 59.2242 19.8335C59.2242 19.8335 58.9716 21.8946 58.8874 21.7297ZM61.8344 7.05431L62.0028 6.97187C62.0028 6.97187 62.0028 7.30165 61.9186 7.3841C61.8344 7.46654 61.8344 7.21921 61.8344 7.05431ZM62.0028 16.041C61.8344 16.1234 62.087 15.7936 62.087 15.7936H62.1712C62.2554 15.7112 62.2554 15.9585 62.0028 16.041ZM63.35 9.03302L64.1919 8.29101C64.1919 8.29101 64.2761 8.29101 64.2761 8.37345C64.2761 8.4559 63.6025 9.03302 63.35 9.11547C63.1816 9.19792 63.2658 9.03302 63.35 9.03302ZM63.0974 10.3522V10.0224L63.7709 10.6819L63.0974 10.3522ZM64.2761 13.8149C64.0235 13.8149 64.3603 13.65 64.4445 13.5676C64.4445 13.5676 64.6129 13.5676 64.6971 13.5676C64.6129 13.65 64.5287 13.8149 64.2761 13.8149ZM66.3811 16.1234L66.0443 15.7936L66.3811 15.9585V16.1234ZM67.3915 13.3202C67.3915 13.3202 66.8021 12.6607 66.7179 12.5782C67.5599 13.1553 67.3915 13.3202 67.3915 13.3202Z" fill="#7C7878"/>
<path opacity="0.5" d="M87 14.8867C87 14.8867 79.4931 9.28036 80.1755 9.19792C80.7605 9.11547 82.8078 5.90007 80.5655 4.74582C78.3231 3.59157 76.7633 4.58093 76.7633 4.58093C73.936 7.3841 77.0557 9.11547 77.0557 9.11547C77.0557 9.11547 77.1532 9.03302 77.1532 9.11547C77.1532 9.19792 76.4708 10.0224 76.1783 10.0224C75.7883 10.0224 74.5209 11.1766 74.2284 11.5064C73.936 11.8362 70.7187 15.5463 70.5237 15.7936C70.3287 16.041 71.4011 17.0303 71.4011 17.0303C71.4011 18.0197 71.9861 17.525 72.0836 17.8548C72.0836 18.1021 72.3761 18.1846 72.3761 18.1846L75.3009 15.2989C75.3009 15.2989 74.8134 18.6792 74.7159 18.7617C74.6184 18.8441 74.0335 21.4 74.1309 21.8946C74.2284 22.3069 73.6435 23.9558 73.6435 23.9558C73.6435 23.9558 75.0084 24.1207 75.7883 24.6154C76.5683 25.0276 76.3733 24.6978 76.5683 24.6978C76.7633 24.6978 78.5181 19.2564 78.5181 19.2564L80.1755 24.6154C80.1755 24.6154 79.688 25.0276 80.468 25.11C81.2479 25.1925 83.3928 24.4505 83.5878 24.368C83.7828 24.2031 81.8329 15.5463 81.8329 15.5463L84.9527 17.6074L85.8301 16.9479V16.5356L87 14.8867ZM75.9833 6.22985C75.9833 6.22985 75.9833 6.06496 76.0808 5.98251H76.1783C76.1783 5.98251 75.9833 6.1474 75.9833 6.22985ZM72.0836 14.8043C72.0836 14.8043 71.8886 14.8867 71.8886 14.9692L72.1811 14.7218C72.1811 14.6394 72.0836 14.8043 72.0836 14.8043ZM73.936 12.4133H73.8385L74.5209 11.7537L73.936 12.4133ZM74.4234 21.7297C74.3259 21.5649 74.8134 19.8335 74.8134 19.8335C74.8134 19.8335 74.5209 21.8946 74.4234 21.7297ZM77.8357 7.05431L78.0307 6.97187C78.0307 6.97187 78.0307 7.30165 77.9332 7.3841C77.8357 7.46654 77.8357 7.21921 77.8357 7.05431ZM78.0307 16.041C77.8357 16.1234 78.1282 15.7936 78.1282 15.7936H78.2256C78.3231 15.7112 78.3231 15.9585 78.0307 16.041ZM79.5906 9.03302L80.5655 8.29101C80.5655 8.29101 80.663 8.29101 80.663 8.37345C80.663 8.4559 79.883 9.03302 79.5906 9.11547C79.3956 9.19792 79.4931 9.03302 79.5906 9.03302ZM79.2981 10.3522V10.0224L80.078 10.6819L79.2981 10.3522ZM80.663 13.8149C80.3705 13.8149 80.7605 13.65 80.858 13.5676C80.858 13.5676 81.0529 13.5676 81.1504 13.5676C81.0529 13.65 80.9555 13.8149 80.663 13.8149ZM83.1003 16.1234L82.7103 15.7936L83.1003 15.9585V16.1234ZM84.2702 13.3202C84.2702 13.3202 83.5878 12.6607 83.4903 12.5782C84.4652 13.1553 84.2702 13.3202 84.2702 13.3202Z" fill="#7C7878"/>
<path d="M102 14.8867C102 14.8867 95.5167 9.28036 96.1061 9.19792C96.6113 9.11547 98.3795 5.90007 96.4429 4.74582C94.5063 3.59157 93.1592 4.58093 93.1592 4.58093C90.7174 7.3841 93.4118 9.11547 93.4118 9.11547C93.4118 9.11547 93.496 9.03302 93.496 9.11547C93.496 9.19792 92.9066 10.0224 92.654 10.0224C92.3172 10.0224 91.2226 11.1766 90.97 11.5064C90.7174 11.8362 87.9389 15.5463 87.7705 15.7936C87.6021 16.041 88.5283 17.0303 88.5283 17.0303C88.5283 18.0197 89.0334 17.525 89.1176 17.8548C89.1176 18.1021 89.3702 18.1846 89.3702 18.1846L91.8962 15.2989C91.8962 15.2989 91.4752 18.6792 91.391 18.7617C91.3068 18.8441 90.8016 21.4 90.8858 21.8946C90.97 22.3069 90.4648 23.9558 90.4648 23.9558C90.4648 23.9558 91.6436 24.1207 92.3172 24.6154C92.9908 25.0276 92.8224 24.6978 92.9908 24.6978C93.1592 24.6978 94.6747 19.2564 94.6747 19.2564L96.1061 24.6154C96.1061 24.6154 95.6851 25.0276 96.3587 25.11C97.0323 25.1925 98.8847 24.4505 99.0531 24.368C99.2215 24.2031 97.5375 15.5463 97.5375 15.5463L100.232 17.6074L100.99 16.9479V16.5356L102 14.8867ZM92.4856 6.22985C92.4856 6.22985 92.4856 6.06496 92.5698 5.98251H92.654C92.654 5.98251 92.4856 6.1474 92.4856 6.22985ZM89.1176 14.8043C89.1176 14.8043 88.9492 14.8867 88.9492 14.9692L89.2018 14.7218C89.2018 14.6394 89.1176 14.8043 89.1176 14.8043ZM90.7174 12.4133H90.6332L91.2226 11.7537L90.7174 12.4133ZM91.1384 21.7297C91.0542 21.5649 91.4752 19.8335 91.4752 19.8335C91.4752 19.8335 91.2226 21.8946 91.1384 21.7297ZM94.0854 7.05431L94.2538 6.97187C94.2538 6.97187 94.2537 7.30165 94.1696 7.3841C94.0854 7.46654 94.0854 7.21921 94.0854 7.05431ZM94.2538 16.041C94.0854 16.1234 94.338 15.7936 94.338 15.7936H94.4221C94.5063 15.7112 94.5064 15.9585 94.2538 16.041ZM95.6009 9.03302L96.4429 8.29101C96.4429 8.29101 96.5271 8.29101 96.5271 8.37345C96.5271 8.4559 95.8535 9.03302 95.6009 9.11547C95.4325 9.19792 95.5167 9.03302 95.6009 9.03302ZM95.3483 10.3522V10.0224L96.0219 10.6819L95.3483 10.3522ZM96.5271 13.8149C96.2745 13.8149 96.6113 13.65 96.6955 13.5676C96.6955 13.5676 96.8639 13.5676 96.9481 13.5676C96.8639 13.65 96.7797 13.8149 96.5271 13.8149ZM98.6321 16.1234L98.2953 15.7936L98.6321 15.9585V16.1234ZM99.6425 13.3202C99.6425 13.3202 99.0531 12.6607 98.9689 12.5782C99.8109 13.1553 99.6425 13.3202 99.6425 13.3202Z" fill="#7C7878"/>
<path d="M21.1844 12.5511C20.2397 12.5511 19.5551 12.8154 19.1304 13.3441C18.7144 13.8641 18.5064 14.5791 18.5064 15.4891C18.5064 15.9311 18.5584 16.3341 18.6624 16.6981C18.7664 17.0534 18.9224 17.3611 19.1304 17.6211C19.3384 17.8811 19.5984 18.0848 19.9104 18.2321C20.2224 18.3708 20.5864 18.4401 21.0024 18.4401C21.2277 18.4401 21.4184 18.4358 21.5744 18.4271C21.7391 18.4184 21.8821 18.4011 22.0034 18.3751V15.2421H24.0314V19.7011C23.7887 19.7964 23.3987 19.8961 22.8614 20.0001C22.3241 20.1128 21.6611 20.1691 20.8724 20.1691C20.1964 20.1691 19.5811 20.0651 19.0264 19.8571C18.4804 19.6491 18.0124 19.3458 17.6224 18.9471C17.2324 18.5484 16.9291 18.0588 16.7124 17.4781C16.5044 16.8974 16.4004 16.2344 16.4004 15.4891C16.4004 14.7351 16.5174 14.0678 16.7514 13.4871C16.9854 12.9064 17.3061 12.4168 17.7134 12.0181C18.1207 11.6108 18.5974 11.3031 19.1434 11.0951C19.6981 10.8871 20.2874 10.7831 20.9114 10.7831C21.3361 10.7831 21.7174 10.8134 22.0554 10.8741C22.4021 10.9261 22.6967 10.9911 22.9394 11.0691C23.1907 11.1384 23.3944 11.2121 23.5504 11.2901C23.7151 11.3681 23.8321 11.4288 23.9014 11.4721L23.3164 13.0971C23.0391 12.9498 22.7184 12.8241 22.3544 12.7201C21.9991 12.6074 21.6091 12.5511 21.1844 12.5511Z" fill="#2926B5"/>
<path d="M32.1843 16.5681C32.1843 17.1054 32.1063 17.5994 31.9503 18.0501C31.7943 18.4921 31.569 18.8734 31.2743 19.1941C30.9797 19.5061 30.6243 19.7488 30.2083 19.9221C29.801 20.0954 29.3417 20.1821 28.8303 20.1821C28.3277 20.1821 27.8683 20.0954 27.4523 19.9221C27.045 19.7488 26.694 19.5061 26.3993 19.1941C26.1047 18.8734 25.875 18.4921 25.7103 18.0501C25.5457 17.5994 25.4633 17.1054 25.4633 16.5681C25.4633 16.0308 25.5457 15.5411 25.7103 15.0991C25.8837 14.6571 26.1177 14.2801 26.4123 13.9681C26.7157 13.6561 27.071 13.4134 27.4783 13.2401C27.8943 13.0668 28.345 12.9801 28.8303 12.9801C29.3243 12.9801 29.775 13.0668 30.1823 13.2401C30.5983 13.4134 30.9537 13.6561 31.2483 13.9681C31.543 14.2801 31.7727 14.6571 31.9373 15.0991C32.102 15.5411 32.1843 16.0308 32.1843 16.5681ZM30.2083 16.5681C30.2083 15.9701 30.087 15.5021 29.8443 15.1641C29.6103 14.8174 29.2723 14.6441 28.8303 14.6441C28.3883 14.6441 28.046 14.8174 27.8033 15.1641C27.5607 15.5021 27.4393 15.9701 27.4393 16.5681C27.4393 17.1661 27.5607 17.6428 27.8033 17.9981C28.046 18.3448 28.3883 18.5181 28.8303 18.5181C29.2723 18.5181 29.6103 18.3448 29.8443 17.9981C30.087 17.6428 30.2083 17.1661 30.2083 16.5681Z" fill="#2926B5"/>
<path d="M37.1168 14.6961C37.4808 14.0808 37.8275 13.4654 38.1568 12.8501C38.4861 12.2348 38.7895 11.6151 39.0668 10.9911H41.3028C40.8088 11.9618 40.2975 12.9021 39.7688 13.8121C39.2401 14.7221 38.6811 15.6364 38.0918 16.5551V20.0001H36.0638V16.5811C35.4745 15.6624 34.9111 14.7438 34.3738 13.8251C33.8451 12.9064 33.3338 11.9618 32.8398 10.9911H35.1928C35.4701 11.6151 35.7691 12.2348 36.0898 12.8501C36.4105 13.4654 36.7528 14.0808 37.1168 14.6961Z" fill="#2926B5"/>
<path d="M47.533 16.5681C47.533 17.1054 47.455 17.5994 47.299 18.0501C47.143 18.4921 46.9176 18.8734 46.623 19.1941C46.3283 19.5061 45.973 19.7488 45.557 19.9221C45.1496 20.0954 44.6903 20.1821 44.179 20.1821C43.6763 20.1821 43.217 20.0954 42.801 19.9221C42.3936 19.7488 42.0426 19.5061 41.748 19.1941C41.4533 18.8734 41.2236 18.4921 41.059 18.0501C40.8943 17.5994 40.812 17.1054 40.812 16.5681C40.812 16.0308 40.8943 15.5411 41.059 15.0991C41.2323 14.6571 41.4663 14.2801 41.761 13.9681C42.0643 13.6561 42.4196 13.4134 42.827 13.2401C43.243 13.0668 43.6936 12.9801 44.179 12.9801C44.673 12.9801 45.1236 13.0668 45.531 13.2401C45.947 13.4134 46.3023 13.6561 46.597 13.9681C46.8916 14.2801 47.1213 14.6571 47.286 15.0991C47.4506 15.5411 47.533 16.0308 47.533 16.5681ZM45.557 16.5681C45.557 15.9701 45.4356 15.5021 45.193 15.1641C44.959 14.8174 44.621 14.6441 44.179 14.6441C43.737 14.6441 43.3946 14.8174 43.152 15.1641C42.9093 15.5021 42.788 15.9701 42.788 16.5681C42.788 17.1661 42.9093 17.6428 43.152 17.9981C43.3946 18.3448 43.737 18.5181 44.179 18.5181C44.621 18.5181 44.959 18.3448 45.193 17.9981C45.4356 17.6428 45.557 17.1661 45.557 16.5681Z" fill="#2926B5"/>
<path d="M54.8704 19.7661C54.5411 19.8614 54.1164 19.9481 53.5964 20.0261C53.0764 20.1128 52.5304 20.1561 51.9584 20.1561C51.3778 20.1561 50.8924 20.0781 50.5024 19.9221C50.1211 19.7661 49.8178 19.5494 49.5924 19.2721C49.3671 18.9861 49.2068 18.6481 49.1114 18.2581C49.0161 17.8681 48.9684 17.4391 48.9684 16.9711V13.1621H50.9054V16.7371C50.9054 17.3611 50.9878 17.8118 51.1524 18.0891C51.3171 18.3664 51.6248 18.5051 52.0754 18.5051C52.2141 18.5051 52.3614 18.5008 52.5174 18.4921C52.6734 18.4748 52.8121 18.4574 52.9334 18.4401V13.1621H54.8704V19.7661Z" fill="#2926B5"/>
<path d="M56.6237 11.4591L58.5607 11.1471V13.1621H60.8877V14.7741H58.5607V17.1791C58.5607 17.5864 58.63 17.9114 58.7687 18.1541C58.916 18.3968 59.2064 18.5181 59.6397 18.5181C59.8477 18.5181 60.06 18.5008 60.2767 18.4661C60.502 18.4228 60.7057 18.3664 60.8877 18.2971L61.1607 19.8051C60.9267 19.9004 60.6667 19.9828 60.3807 20.0521C60.0947 20.1214 59.7437 20.1561 59.3277 20.1561C58.799 20.1561 58.3614 20.0868 58.0147 19.9481C57.668 19.8008 57.3907 19.6014 57.1827 19.3501C56.9747 19.0901 56.8274 18.7781 56.7407 18.4141C56.6627 18.0501 56.6237 17.6471 56.6237 17.2051V11.4591Z" fill="#2926B5"/>
<path d="M62.4651 20.0001V10.2241L64.4021 9.91211V13.1881C64.5321 13.1448 64.6967 13.1058 64.8961 13.0711C65.1041 13.0278 65.3034 13.0061 65.4941 13.0061C66.0487 13.0061 66.5081 13.0841 66.8721 13.2401C67.2447 13.3874 67.5394 13.5998 67.7561 13.8771C67.9814 14.1544 68.1374 14.4838 68.2241 14.8651C68.3194 15.2464 68.3671 15.6711 68.3671 16.1391V20.0001H66.4301V16.3731C66.4301 15.7491 66.3477 15.3071 66.1831 15.0471C66.0271 14.7871 65.7324 14.6571 65.2991 14.6571C65.1257 14.6571 64.9611 14.6744 64.8051 14.7091C64.6577 14.7351 64.5234 14.7654 64.4021 14.8001V20.0001H62.4651Z" fill="#2926B5"/>
<path d="M69.8474 15.3071H72.0183V12.9021H73.7864V15.3071H75.9574V16.9321H73.7864V19.3371H72.0183V16.9321H69.8474V15.3071Z" fill="#2926B5"/>
<path d="M32.0638 4.4066H32.9727L32.8717 5.39802C32.8717 5.39802 33.0737 5.94882 32.9727 5.94882C32.8717 5.94882 32.2658 5.83866 32.2658 5.83866L31.7609 6.27929L31.4579 5.7285L30.751 5.50818L31.3569 4.95739L31.5589 4.18628L32.0638 4.4066Z" fill="#FFED33"/>
<path d="M29.8128 2.31346H30.7217L30.6207 3.30488C30.6207 3.30488 30.8227 3.85568 30.7217 3.85568C30.6207 3.85568 30.0148 3.74552 30.0148 3.74552L29.5099 4.18615L29.2069 3.63536L28.5 3.41504L29.1059 2.86425L29.3079 2.09314L29.8128 2.31346Z" fill="#FFED33"/>
<path d="M26.6111 1.39453L27.0556 1.72941L28.3889 1.64569L28.2778 2.4829L28.5 3.15266L27.5 3.06894L26.8333 3.48755L26.3889 2.81778L25.5 2.65034L26.3889 2.23174L26.6111 1.39453Z" fill="#FFED33"/>
<path d="M23.3438 1.60676L24 0.845662L22.6875 0.761096L22.0313 0L21.375 0.930229L20.25 1.26849L21.2813 1.86046L21.4688 2.79069L22.2188 2.28329L23.4375 2.79069L23.3438 1.60676Z" fill="#FFED33"/>
<path d="M15.5878 1.80382L16.5608 0.697754L17.2905 1.63365L18.75 2.14415L17.4122 2.90988V3.93087L15.9527 3.59054L14.6149 4.18611L15.1014 2.99497L14.25 1.8889L15.5878 1.80382Z" fill="#FFED33"/>
<path d="M10.001 4.57702L11.1062 3.48865L11.751 4.9119L13.501 5.3305L12.3036 6.25143L12.2115 7.67468L10.7378 6.75375L9.17203 7.08863L9.54045 5.58166L8.25098 4.66074L10.001 4.57702Z" fill="#FFED33"/>
<path d="M8.05933 8.37268L8.32628 9.86262L9.75001 10.5012L7.88136 11.2816L7.61441 12.5587L6.19068 11.7783L4.5 12.204L5.47881 10.8559L4.94492 9.43693L6.54661 9.72072L8.05933 8.37268Z" fill="#FFED33"/>
<path d="M4.91153 13.9534V15.6477L6.74903 16.8437L5.17403 17.7407L4.64903 19.5347L3.42403 17.7407L1.76152 17.8404C1.76152 17.8404 2.46152 16.1461 2.46152 16.0464C2.46152 15.9467 1.49902 14.352 1.49902 14.352L3.24903 14.651L4.91153 13.9534Z" fill="#FFED33"/>
<path d="M0 19.9655L1.94118 20.5665L3.88236 19.5361V21.2535L6.00001 22.5415L4.14706 23.4002L3.52942 25.1175L2.11765 23.3143L0.441177 23.486L1.14706 21.8545" fill="#FFED33"/>
<path d="M7.63433 24.4182L6.29105 26.3835H4.5L5.57463 28.1129L4.94776 29.9996L6.73881 29.0563L8.61941 29.7638V28.1129L10.5 26.6979C10.5 26.6979 8.61941 26.3049 8.52986 26.3049C8.4403 26.3049 7.63433 24.4182 7.63433 24.4182Z" fill="#FFED33"/>
<path d="M15.05 25.9028L14.15 27.4169H12.75L13.55 28.6638L13.05 29.9998L14.45 29.4654L15.75 29.9107V28.6638L17.25 27.6841L15.65 27.1497L15.05 25.8137V25.9028Z" fill="#FFED33"/>
<path d="M21.75 25.116L21.0833 26.0211L20.25 26.1719L20.75 26.8507L20.4167 27.9067L21.4167 27.4541L22.25 27.8312V27.0016L23.25 26.3227L22.25 26.0965L21.75 25.116Z" fill="#FFED33"/>
</svg>
