<svg width="36" height="36" viewBox="0 0 36 36" fill="none" xmlns="http://www.w3.org/2000/svg">
<rect y="-0.000488281" width="36" height="36" rx="4" fill="#9492E9"/>
<path fill-rule="evenodd" clip-rule="evenodd" d="M20.667 15.9993C19.7829 15.9993 18.9351 16.3505 18.31 16.9757C17.6848 17.6008 17.3337 18.4486 17.3337 19.3327V23.3327H18.667V19.3327C18.667 18.8022 18.8777 18.2935 19.2528 17.9185C19.6279 17.5434 20.1366 17.3327 20.667 17.3327C21.1974 17.3327 21.7061 17.5434 22.0812 17.9185C22.4563 18.2935 22.667 18.8022 22.667 19.3327V23.3327H24.0003V19.3327C24.0003 18.4486 23.6491 17.6008 23.024 16.9757C22.3989 16.3505 21.551 15.9993 20.667 15.9993ZM20.667 14.666C19.4293 14.666 18.2423 15.1577 17.3672 16.0329C16.492 16.908 16.0003 18.095 16.0003 19.3327V23.9993C16.0003 24.3675 16.2988 24.666 16.667 24.666H19.3337C19.7018 24.666 20.0003 24.3675 20.0003 23.9993V19.3327C20.0003 19.1559 20.0706 18.9863 20.1956 18.8613C20.3206 18.7363 20.4902 18.666 20.667 18.666C20.8438 18.666 21.0134 18.7363 21.1384 18.8613C21.2634 18.9863 21.3337 19.1559 21.3337 19.3327V23.9993C21.3337 24.3675 21.6321 24.666 22.0003 24.666H24.667C25.0352 24.666 25.3337 24.3675 25.3337 23.9993V19.3327C25.3337 18.095 24.842 16.908 23.9668 16.0329C23.0917 15.1577 21.9047 14.666 20.667 14.666Z" fill="white"/>
<path fill-rule="evenodd" clip-rule="evenodd" d="M10.667 15.9993C10.667 15.6312 10.9655 15.3327 11.3337 15.3327H14.0003C14.3685 15.3327 14.667 15.6312 14.667 15.9993V23.9993C14.667 24.3675 14.3685 24.666 14.0003 24.666H11.3337C10.9655 24.666 10.667 24.3675 10.667 23.9993V15.9993ZM12.0003 16.666V23.3327H13.3337V16.666H12.0003Z" fill="white"/>
<path fill-rule="evenodd" clip-rule="evenodd" d="M12.667 11.9993C12.2988 11.9993 12.0003 12.2978 12.0003 12.666C12.0003 13.0342 12.2988 13.3327 12.667 13.3327C13.0352 13.3327 13.3337 13.0342 13.3337 12.666C13.3337 12.2978 13.0352 11.9993 12.667 11.9993ZM10.667 12.666C10.667 11.5614 11.5624 10.666 12.667 10.666C13.7716 10.666 14.667 11.5614 14.667 12.666C14.667 13.7706 13.7716 14.666 12.667 14.666C11.5624 14.666 10.667 13.7706 10.667 12.666Z" fill="white"/>
</svg>
