<svg width="16" height="16" viewBox="0 0 16 16" fill="none" xmlns="http://www.w3.org/2000/svg">
<g opacity="0.5">
<path fill-rule="evenodd" clip-rule="evenodd" d="M2.66699 3.33285C2.30185 3.33285 2.00033 3.63437 2.00033 3.99951V11.9995C2.00033 12.3647 2.30185 12.6662 2.66699 12.6662H13.3337C13.6988 12.6662 14.0003 12.3647 14.0003 11.9995V3.99951C14.0003 3.63437 13.6988 3.33285 13.3337 3.33285H2.66699ZM0.666992 3.99951C0.666992 2.89799 1.56547 1.99951 2.66699 1.99951H13.3337C14.4352 1.99951 15.3337 2.89799 15.3337 3.99951V11.9995C15.3337 13.101 14.4352 13.9995 13.3337 13.9995H2.66699C1.56547 13.9995 0.666992 13.101 0.666992 11.9995V3.99951Z" fill="#667085"/>
<path fill-rule="evenodd" clip-rule="evenodd" d="M0.787561 3.61694C0.998704 3.3153 1.41439 3.24195 1.71602 3.45309L8.00038 7.85214L14.2847 3.45309C14.5864 3.24195 15.0021 3.3153 15.2132 3.61694C15.4243 3.91857 15.351 4.33426 15.0494 4.5454L8.38269 9.21206C8.15314 9.37275 7.84762 9.37275 7.61807 9.21206L0.951408 4.5454C0.649775 4.33426 0.576419 3.91857 0.787561 3.61694Z" fill="#667085"/>
</g>
</svg>
