<svg width="16" height="17" viewBox="0 0 16 17" fill="none" xmlns="http://www.w3.org/2000/svg">
<g opacity="0.5" clip-path="url(#clip0_802_1988)">
<path d="M14.6669 11.7793V13.7793C14.6677 13.9649 14.6297 14.1487 14.5553 14.3188C14.4809 14.4889 14.3718 14.6416 14.235 14.7672C14.0982 14.8927 13.9367 14.9882 13.7608 15.0477C13.5849 15.1072 13.3985 15.1293 13.2136 15.1126C11.1622 14.8897 9.19161 14.1887 7.46028 13.0659C5.8495 12.0424 4.48384 10.6767 3.46028 9.06592C2.3336 7.32672 1.63244 5.34658 1.41361 3.28592C1.39695 3.10156 1.41886 2.91576 1.47795 2.74033C1.53703 2.56491 1.63199 2.40371 1.75679 2.267C1.88159 2.13029 2.03348 2.02106 2.20281 1.94627C2.37213 1.87147 2.55517 1.83276 2.74028 1.83258H4.74028C5.06382 1.8294 5.37748 1.94397 5.62279 2.15494C5.8681 2.36591 6.02833 2.65888 6.07361 2.97925C6.15803 3.6193 6.31458 4.24774 6.54028 4.85258C6.62998 5.0912 6.64939 5.35053 6.59622 5.59984C6.54305 5.84915 6.41952 6.07799 6.24028 6.25925L5.39361 7.10592C6.34265 8.77495 7.72458 10.1569 9.39361 11.1059L10.2403 10.2593C10.4215 10.08 10.6504 9.95648 10.8997 9.90331C11.149 9.85014 11.4083 9.86956 11.6469 9.95925C12.2518 10.185 12.8802 10.3415 13.5203 10.4259C13.8441 10.4716 14.1399 10.6347 14.3513 10.8842C14.5627 11.1338 14.6751 11.4523 14.6669 11.7793Z" stroke="#667085" stroke-width="2" stroke-linecap="round" stroke-linejoin="round"/>
</g>
<defs>
<clipPath id="clip0_802_1988">
<rect width="16" height="16" fill="white" transform="translate(0 0.499512)"/>
</clipPath>
</defs>
</svg>
