<svg width="16" height="17" viewBox="0 0 16 17" fill="none" xmlns="http://www.w3.org/2000/svg">
<g opacity="0.5" clip-path="url(#clip0_802_1992)">
<path fill-rule="evenodd" clip-rule="evenodd" d="M7.99967 1.83284C6.58519 1.83284 5.22863 2.39475 4.22844 3.39494C3.22824 4.39514 2.66634 5.75169 2.66634 7.16618C2.66634 9.23155 4.01017 11.2357 5.48364 12.791C6.20675 13.5543 6.93212 14.1792 7.47746 14.6134C7.68042 14.775 7.85769 14.9096 7.99967 15.0146C8.14166 14.9096 8.31893 14.775 8.52189 14.6134C9.06723 14.1792 9.7926 13.5543 10.5157 12.791C11.9892 11.2357 13.333 9.23155 13.333 7.16618C13.333 5.75169 12.7711 4.39514 11.7709 3.39494C10.7707 2.39475 9.41416 1.83284 7.99967 1.83284ZM7.99967 15.8328C7.62987 16.3875 7.62971 16.3874 7.62951 16.3873L7.62761 16.386L7.62317 16.383L7.60789 16.3727C7.59491 16.3639 7.57639 16.3512 7.55271 16.3348C7.50536 16.302 7.43732 16.2543 7.35154 16.1923C7.18004 16.0684 6.93725 15.8877 6.64689 15.6564C6.06723 15.1949 5.2926 14.5281 4.51571 13.708C2.98918 12.0967 1.33301 9.76747 1.33301 7.16618C1.33301 5.39807 2.03539 3.70238 3.28563 2.45213C4.53587 1.20189 6.23156 0.499512 7.99967 0.499512C9.76778 0.499512 11.4635 1.20189 12.7137 2.45213C13.964 3.70238 14.6663 5.39807 14.6663 7.16618C14.6663 9.76747 13.0102 12.0967 11.4836 13.708C10.7067 14.5281 9.93212 15.1949 9.35246 15.6564C9.0621 15.8877 8.81931 16.0684 8.64781 16.1923C8.56203 16.2543 8.49399 16.302 8.44664 16.3348C8.42296 16.3512 8.40444 16.3639 8.39146 16.3727L8.37618 16.383L8.37174 16.386L8.37033 16.387C8.37014 16.3871 8.36947 16.3875 7.99967 15.8328ZM7.99967 15.8328L8.36947 16.3875C8.14554 16.5368 7.85345 16.5366 7.62951 16.3873L7.99967 15.8328Z" fill="#667085"/>
<path fill-rule="evenodd" clip-rule="evenodd" d="M7.99967 5.83284C7.26329 5.83284 6.66634 6.4298 6.66634 7.16618C6.66634 7.90256 7.26329 8.49951 7.99967 8.49951C8.73605 8.49951 9.33301 7.90256 9.33301 7.16618C9.33301 6.4298 8.73605 5.83284 7.99967 5.83284ZM5.33301 7.16618C5.33301 5.69342 6.52692 4.49951 7.99967 4.49951C9.47243 4.49951 10.6663 5.69342 10.6663 7.16618C10.6663 8.63894 9.47243 9.83284 7.99967 9.83284C6.52692 9.83284 5.33301 8.63894 5.33301 7.16618Z" fill="#667085"/>
</g>
<defs>
<clipPath id="clip0_802_1992">
<rect width="16" height="16" fill="white" transform="translate(0 0.499512)"/>
</clipPath>
</defs>
</svg>
