<svg width="36" height="36" viewBox="0 0 36 36" fill="none" xmlns="http://www.w3.org/2000/svg">
<rect y="-0.000488281" width="36" height="36" rx="4" fill="#9492E9"/>
<g clip-path="url(#clip0_802_1997)">
<path fill-rule="evenodd" clip-rule="evenodd" d="M18.0003 11.9995C18.0003 11.9995 18.0004 11.9995 18.0004 12.6662L18.0004 13.3328L17.9501 13.3329C17.9167 13.333 17.8674 13.3331 17.8042 13.3334C17.6777 13.334 17.4954 13.3352 17.2729 13.3376C16.8278 13.3424 16.223 13.3519 15.5835 13.3709C14.9429 13.3899 14.2728 13.4183 13.6951 13.4605C13.1031 13.5036 12.6631 13.5579 12.4439 13.6156C12.2448 13.6728 12.0641 13.7812 11.9198 13.93C11.7791 14.0751 11.6778 14.2536 11.6255 14.4487C11.4258 15.5644 11.3281 16.6961 11.3337 17.8296L11.3337 17.837C11.3266 18.9752 11.4235 20.1116 11.6234 21.232C11.6811 21.4171 11.7834 21.5854 11.9214 21.722C12.066 21.8651 12.245 21.9686 12.4411 22.0226C12.6594 22.0806 13.1005 22.1352 13.6951 22.1786C14.2728 22.2207 14.9429 22.2491 15.5835 22.2681C16.223 22.2871 16.8278 22.2967 17.2729 22.3014C17.4954 22.3038 17.6777 22.305 17.8042 22.3056C17.8674 22.3059 17.9167 22.306 17.9501 22.3061H18.0507C18.0841 22.306 18.1333 22.3059 18.1966 22.3056C18.3231 22.305 18.5054 22.3038 18.7278 22.3014C19.173 22.2967 19.7777 22.2871 20.4172 22.2681C21.0578 22.2491 21.728 22.2207 22.3056 22.1786C22.8977 22.1354 23.3376 22.0811 23.5568 22.0234C23.7559 21.9662 23.9367 21.8578 24.081 21.7091C24.2217 21.564 24.323 21.3854 24.3753 21.1904C24.5734 20.0831 24.6711 18.9601 24.6671 17.8352L24.667 17.8287C24.6742 16.6866 24.5766 15.5462 24.3753 14.422C24.323 14.227 24.2217 14.0484 24.081 13.9033C23.9383 13.7562 23.7601 13.6487 23.5637 13.591C23.337 13.5376 22.8955 13.4885 22.3098 13.4495C21.731 13.4109 21.0599 13.385 20.419 13.3676C19.779 13.3502 19.1739 13.3415 18.7285 13.3372C18.5059 13.335 18.3235 13.3339 18.1968 13.3334L18.0508 13.3329L18.0004 13.3328L18.0004 12.6662C18.0004 11.9995 18.0003 11.9995 18.0003 11.9995L18.0535 11.9996C18.0879 11.9997 18.1382 11.9998 18.2026 12.0001C18.3313 12.0006 18.5161 12.0017 18.7415 12.0039C19.1919 12.0083 19.8051 12.0171 20.4551 12.0348C21.1042 12.0524 21.7948 12.0789 22.3984 12.1191C22.9849 12.1582 23.5414 12.213 23.8919 12.2985C23.8997 12.3004 23.9075 12.3025 23.9152 12.3047C24.3419 12.4254 24.7292 12.6566 25.038 12.9749C25.3468 13.2933 25.5661 13.6874 25.6738 14.1176L25.027 14.2795L25.6831 14.1612C25.9017 15.373 26.0079 16.6024 26.0004 17.8337C26.0045 19.0467 25.8984 20.2575 25.6831 21.4511C25.6805 21.4658 25.6774 21.4803 25.6738 21.4947C25.5661 21.9249 25.3468 22.3191 25.038 22.6374C24.7292 22.9557 24.3419 23.1869 23.9152 23.3077L23.906 23.3102C23.5502 23.4054 22.9888 23.4656 22.4026 23.5084C21.7978 23.5525 21.1063 23.5816 20.4569 23.6009C19.8064 23.6202 19.1928 23.6299 18.7421 23.6347C18.5166 23.6371 18.3316 23.6383 18.2028 23.6389C18.1384 23.6392 18.088 23.6394 18.0536 23.6394L18.0007 23.6395L17.9471 23.6394C17.9127 23.6394 17.8623 23.6392 17.7979 23.6389C17.6691 23.6383 17.4841 23.6371 17.2587 23.6347C16.808 23.6299 16.1944 23.6202 15.5439 23.6009C14.8945 23.5816 14.203 23.5525 13.5981 23.5084C13.0119 23.4656 12.4506 23.4054 12.0948 23.3102L12.0911 23.3092C11.6731 23.1948 11.2916 22.9746 10.9835 22.6697C10.6755 22.3648 10.4513 21.9856 10.3325 21.5688C10.3265 21.5476 10.3215 21.5262 10.3176 21.5045C10.0991 20.2929 9.99287 19.0636 10.0004 17.8324C9.99456 16.6104 10.1008 15.3905 10.3176 14.1879C10.3203 14.1732 10.3234 14.1587 10.327 14.1443C10.4347 13.7141 10.654 13.3199 10.9628 13.0016C11.2715 12.6833 11.6588 12.4521 12.0856 12.3314L12.0948 12.3288C12.4506 12.2337 13.0119 12.1734 13.5981 12.1307C14.203 12.0865 14.8945 12.0574 15.5439 12.0381C16.1944 12.0188 16.808 12.0092 17.2587 12.0043C17.4841 12.0019 17.6691 12.0007 17.7979 12.0001C17.8623 11.9998 17.9127 11.9997 17.9471 11.9996L18.0003 11.9995Z" fill="white"/>
<path fill-rule="evenodd" clip-rule="evenodd" d="M16.1645 15.0762C16.3697 14.9569 16.6229 14.9556 16.8292 15.073L20.6626 17.253C20.871 17.3715 20.9997 17.5928 20.9997 17.8325C20.9997 18.0722 20.871 18.2935 20.6626 18.412L16.8292 20.592C16.6229 20.7094 16.3697 20.7081 16.1645 20.5888C15.9593 20.4694 15.833 20.2499 15.833 20.0125V15.6525C15.833 15.4151 15.9593 15.1956 16.1645 15.0762ZM17.1663 16.7986V18.8664L18.9844 17.8325L17.1663 16.7986Z" fill="white"/>
</g>
<defs>
<clipPath id="clip0_802_1997">
<rect width="16" height="16" fill="white" transform="translate(10 9.99951)"/>
</clipPath>
</defs>
</svg>
